<?xml version="1.0" standalone="no"?><svg xmlns="http://www.w3.org/2000/svg" viewBox="0 0 1440 320"><path fill="#00cba9" fill-opacity="0.5" d="M0,96L9.2,90.7C18.5,85,37,75,55,96C73.8,117,92,171,111,170.7C129.2,171,148,117,166,101.3C184.6,85,203,107,222,149.3C240,192,258,256,277,245.3C295.4,235,314,149,332,122.7C350.8,96,369,128,388,133.3C406.2,139,425,117,443,90.7C461.5,64,480,32,498,48C516.9,64,535,128,554,176C572.3,224,591,256,609,261.3C627.7,267,646,245,665,213.3C683.1,181,702,139,720,138.7C738.5,139,757,181,775,181.3C793.8,181,812,139,831,138.7C849.2,139,868,181,886,192C904.6,203,923,181,942,186.7C960,192,978,224,997,240C1015.4,256,1034,256,1052,224C1070.8,192,1089,128,1108,117.3C1126.2,107,1145,149,1163,165.3C1181.5,181,1200,171,1218,181.3C1236.9,192,1255,224,1274,224C1292.3,224,1311,192,1329,160C1347.7,128,1366,96,1385,80C1403.1,64,1422,64,1431,64L1440,64L1440,320L1430.8,320C1421.5,320,1403,320,1385,320C1366.2,320,1348,320,1329,320C1310.8,320,1292,320,1274,320C1255.4,320,1237,320,1218,320C1200,320,1182,320,1163,320C1144.6,320,1126,320,1108,320C1089.2,320,1071,320,1052,320C1033.8,320,1015,320,997,320C978.5,320,960,320,942,320C923.1,320,905,320,886,320C867.7,320,849,320,831,320C812.3,320,794,320,775,320C756.9,320,738,320,720,320C701.5,320,683,320,665,320C646.2,320,628,320,609,320C590.8,320,572,320,554,320C535.4,320,517,320,498,320C480,320,462,320,443,320C424.6,320,406,320,388,320C369.2,320,351,320,332,320C313.8,320,295,320,277,320C258.5,320,240,320,222,320C203.1,320,185,320,166,320C147.7,320,129,320,111,320C92.3,320,74,320,55,320C36.9,320,18,320,9,320L0,320Z"></path></svg>